<?xml version="1.0" standalone="no"?>
<!DOCTYPE svg PUBLIC "-//W3C//DTD SVG 20010904//EN"
 "http://www.w3.org/TR/2001/REC-SVG-20010904/DTD/svg10.dtd">
<svg version="1.0" xmlns="http://www.w3.org/2000/svg"
 width="2000.000000pt" height="2000.000000pt" viewBox="0 0 2000.000000 2000.000000"
 preserveAspectRatio="xMidYMid meet">

<g transform="translate(0.000000,2000.000000) scale(0.100000,-0.100000)"
fill="#000000" stroke="none">
<path d="M8217 12594 c-6 -7 -11 -1344 -4 -1344 1 0 35 -3 75 -7 l72 -6 -2
679 -3 679 -65 3 c-36 2 -69 0 -73 -4z"/>
<path d="M11090 12360 c0 -132 -2 -240 -4 -240 -3 0 -26 14 -51 31 -77 52
-148 72 -240 67 -64 -3 -91 -10 -133 -33 -142 -77 -221 -248 -222 -482 -1
-227 80 -397 218 -459 41 -19 70 -24 130 -24 95 0 159 19 223 65 64 46 83 46
76 1 -7 -42 1 -46 89 -46 l64 0 -2 678 -3 677 -72 3 -73 3 0 -241z m-159 -290
c61 -21 138 -63 151 -84 4 -6 8 -121 8 -255 l0 -244 -39 -37 c-65 -62 -142
-94 -227 -95 -66 0 -75 3 -111 31 -90 73 -108 128 -108 334 0 149 1 157 28
215 32 68 58 100 102 122 72 38 114 40 196 13z"/>
<path d="M11482 12520 c-47 -20 -53 -110 -10 -150 26 -24 114 -28 144 -6 26
19 27 117 2 142 -19 20 -102 28 -136 14z"/>
<path d="M7423 12505 c-132 -36 -231 -116 -288 -236 -57 -118 -70 -197 -70
-409 0 -162 3 -195 23 -263 42 -145 97 -229 192 -291 106 -70 150 -81 330 -81
171 1 216 11 315 77 46 30 135 132 135 153 -1 9 -102 85 -115 85 -3 0 -31 -26
-63 -59 -67 -68 -114 -95 -199 -111 -132 -26 -277 17 -345 101 -75 95 -103
207 -102 409 2 220 41 343 135 424 60 51 125 70 239 71 84 0 101 -3 153 -28
37 -18 74 -48 104 -83 26 -30 51 -54 55 -54 16 0 118 81 118 93 0 7 -22 38
-49 68 -56 63 -136 110 -227 133 -78 20 -268 20 -341 1z"/>
<path d="M3060 12280 c0 -5 38 -35 85 -67 l86 -58 -43 -9 c-360 -72 -646 -208
-928 -443 -273 -227 -495 -564 -598 -908 -83 -278 -100 -668 -41 -960 53 -261
183 -542 358 -770 280 -367 689 -631 1130 -730 128 -29 189 -32 198 -10 3 9 3
18 1 20 -2 3 -42 12 -89 21 -303 56 -574 173 -820 353 -461 338 -744 875 -766
1452 -14 396 87 764 303 1094 232 357 593 638 988 771 104 34 296 77 306 67 5
-5 -44 -96 -72 -132 -24 -31 -23 -51 2 -51 14 0 34 22 67 73 25 39 58 89 72
111 l25 38 -34 29 c-19 16 -70 49 -112 74 -73 43 -118 56 -118 35z"/>
<path d="M8763 12205 c-79 -24 -194 -107 -193 -139 0 -6 25 -26 55 -44 l55
-33 38 29 c64 50 103 65 183 70 81 5 134 -7 182 -40 38 -27 56 -67 63 -137 l7
-59 -44 -6 c-24 -3 -97 -10 -162 -16 -140 -14 -205 -31 -269 -72 -117 -74
-160 -245 -97 -387 26 -59 62 -97 124 -129 42 -21 63 -25 130 -25 95 1 157 25
250 97 l60 47 5 -58 5 -58 73 -3 73 -3 -3 383 c-3 375 -3 384 -26 433 -13 27
-33 60 -45 73 -30 33 -101 67 -165 81 -71 15 -247 13 -299 -4z m385 -597 l3
-117 -53 -40 c-94 -70 -154 -95 -230 -96 -52 0 -73 5 -95 21 -95 69 -81 229
25 287 44 24 166 51 277 60 74 7 70 13 73 -115z"/>
<path d="M12229 12206 c-46 -16 -92 -45 -166 -102 l-58 -45 -5 68 -5 68 -72 3
-72 3 -3 -473 c-2 -271 1 -476 6 -479 5 -4 39 -6 75 -5 l66 1 5 338 5 338 25
20 c173 137 299 168 374 90 40 -42 48 -131 44 -483 -2 -196 0 -299 7 -301 5
-2 39 -3 75 -3 l65 1 0 375 c0 334 -2 382 -19 435 -23 76 -82 136 -149 153
-60 16 -153 14 -198 -2z"/>
<path d="M13046 12204 c-64 -20 -113 -52 -158 -102 -75 -83 -105 -172 -115
-334 -10 -173 25 -326 94 -413 38 -48 117 -101 178 -120 66 -20 216 -19 285 1
178 53 270 215 270 479 0 238 -75 392 -227 467 -58 28 -75 32 -171 35 -77 2
-121 -2 -156 -13z m249 -138 c28 -13 60 -34 72 -47 73 -80 101 -286 61 -464
-30 -140 -111 -205 -252 -205 -78 0 -139 29 -183 88 -49 65 -58 108 -58 287 0
153 1 163 27 217 36 77 69 110 135 134 60 21 141 17 198 -10z"/>
<path d="M9516 12191 c-11 -17 -8 -725 3 -774 32 -139 108 -199 252 -198 97 0
212 52 303 136 15 14 29 25 31 25 2 0 5 -30 7 -67 l3 -68 73 -3 72 -3 0 474 0
474 -52 7 c-29 3 -63 6 -75 6 l-23 0 0 -337 c0 -186 -4 -343 -8 -349 -4 -5
-47 -37 -96 -69 -136 -90 -227 -104 -295 -47 -45 38 -51 92 -51 473 l0 316
-52 7 c-71 8 -86 8 -92 -3z"/>
<path d="M11480 12190 c-4 -3 -9 -216 -11 -475 l-4 -470 75 0 75 0 0 474 0
475 -63 0 c-35 1 -67 -1 -72 -4z"/>
<path d="M3750 12145 c0 -21 20 -28 200 -74 348 -89 539 -179 795 -377 366
-281 588 -681 671 -1204 23 -147 15 -450 -15 -605 -91 -457 -311 -830 -652
-1105 -198 -159 -365 -252 -609 -340 -56 -20 -257 -70 -283 -70 -26 0 -27 2
-16 22 7 13 29 44 51 71 38 49 49 87 25 87 -17 0 -55 -41 -108 -118 -24 -35
-50 -72 -57 -82 -8 -11 -11 -23 -8 -28 3 -5 53 -42 111 -81 104 -70 145 -86
145 -56 0 15 -102 88 -139 100 -38 12 -22 23 72 45 105 26 285 87 401 137 237
101 542 335 713 546 32 40 61 74 64 77 17 13 136 204 170 272 46 92 110 258
137 360 53 195 57 229 57 508 0 238 -3 277 -24 380 -77 379 -259 716 -536 993
-182 183 -343 293 -579 398 -147 65 -255 99 -431 135 -141 28 -155 29 -155 9z"/>
<path d="M3360 11859 c-379 -39 -707 -187 -966 -436 -66 -64 -187 -203 -246
-283 -38 -52 -142 -257 -166 -325 -88 -258 -95 -301 -95 -580 0 -279 7 -329
69 -519 76 -233 204 -444 382 -630 163 -170 442 -342 686 -422 207 -68 243
-74 471 -74 271 0 329 10 563 91 163 56 384 182 527 299 255 208 447 525 533
880 33 136 47 350 33 510 -14 155 -19 179 -73 355 -100 325 -309 615 -603 836
-164 123 -420 235 -627 273 -184 34 -327 41 -488 25z m580 -879 c0 -5 -11 -29
-24 -52 -151 -272 -230 -428 -221 -436 4 -4 74 -6 156 -4 82 2 149 0 149 -5 0
-4 -33 -60 -74 -123 -41 -63 -92 -142 -112 -175 -21 -33 -88 -136 -149 -230
-62 -93 -153 -237 -204 -320 -129 -208 -214 -335 -223 -335 -11 0 -10 28 2 70
6 19 17 62 24 95 38 168 138 586 151 631 8 28 15 54 15 57 0 4 -89 8 -197 9
-169 3 -198 5 -196 18 2 17 161 472 229 653 24 66 44 125 44 133 0 11 42 14
235 16 129 2 271 4 315 6 47 1 80 -2 80 -8z"/>
<path d="M7108 9998 c-2 -343 1 -626 5 -629 12 -9 377 -8 492 1 270 22 396
152 383 391 -8 139 -60 211 -195 269 -29 12 -51 26 -48 30 3 4 21 15 40 24 44
21 100 96 114 153 14 54 14 147 0 196 -14 51 -68 110 -127 137 -80 38 -178 49
-429 50 l-231 0 -4 -622z m515 461 c21 -6 55 -25 75 -44 37 -33 37 -34 37
-117 0 -97 -19 -134 -88 -170 -37 -19 -62 -22 -209 -26 l-168 -4 0 184 c0 102
3 188 8 193 9 10 296 -3 345 -16z m90 -543 c79 -38 102 -78 102 -176 0 -178
-106 -236 -420 -228 l-120 3 -3 205 c-1 112 0 211 3 219 4 11 38 13 194 9 180
-4 191 -6 244 -32z"/>
<path d="M11300 10450 l0 -129 -67 -3 -68 -3 0 -65 0 -65 55 -1 c30 -1 60 -2
67 -3 9 -1 13 -85 15 -328 l3 -328 28 -58 c47 -94 115 -131 245 -130 40 1 94
6 118 13 42 12 45 15 39 39 -3 14 -9 41 -12 59 l-5 33 -79 -7 c-43 -3 -94 -3
-114 0 -65 13 -69 34 -72 390 -2 206 1 312 7 316 6 4 59 8 118 9 58 1 107 3
108 4 1 1 4 27 5 57 l4 55 -100 2 c-157 4 -146 -4 -145 116 1 56 1 114 1 130
l-1 27 -75 0 -75 0 0 -130z"/>
<path d="M8325 10326 c-22 -7 -55 -21 -74 -30 -41 -22 -121 -94 -121 -110 0
-6 25 -26 55 -44 l55 -33 32 26 c57 48 109 68 189 73 91 5 162 -14 202 -56 26
-27 46 -91 47 -149 0 -36 15 -32 -203 -53 -140 -14 -205 -31 -269 -72 -89 -56
-138 -169 -124 -287 19 -157 121 -253 271 -254 94 -1 161 23 248 89 l72 54 5
-57 5 -58 73 -3 73 -3 -3 388 c-3 350 -5 392 -22 428 -36 79 -108 131 -214
154 -70 15 -247 13 -297 -3z m383 -598 l3 -117 -53 -40 c-187 -141 -364 -129
-385 27 -12 87 22 154 97 192 45 23 258 60 320 56 12 -1 16 -23 18 -118z"/>
<path d="M10614 10331 c-51 -13 -133 -63 -171 -104 -75 -84 -113 -214 -113
-392 0 -340 139 -500 430 -497 128 1 191 24 273 102 l61 57 -39 26 c-22 15
-50 34 -62 42 -20 15 -24 14 -72 -29 -60 -54 -110 -69 -202 -64 -135 7 -209
90 -228 254 -4 43 -6 82 -4 87 2 4 141 7 309 7 l304 0 0 100 c0 231 -67 347
-234 403 -52 18 -193 22 -252 8z m228 -137 c60 -31 118 -143 118 -227 l0 -27
-229 0 c-149 0 -232 4 -236 10 -10 17 15 110 41 157 32 56 82 93 141 103 57 9
128 3 165 -16z"/>
<path d="M12072 10321 c-111 -38 -199 -126 -236 -234 -49 -146 -46 -393 8
-520 27 -65 76 -127 129 -162 79 -52 142 -67 266 -63 91 3 115 7 168 32 141
65 211 195 220 411 7 146 -8 249 -46 331 -50 107 -128 176 -237 209 -69 21
-206 19 -272 -4z m248 -132 c113 -51 151 -137 151 -343 0 -215 -38 -304 -151
-355 -55 -25 -155 -28 -208 -5 -108 45 -152 146 -152 350 0 125 21 224 58 279
60 87 199 121 302 74z"/>
<path d="M9460 10321 c-45 -14 -84 -38 -157 -95 l-72 -55 -3 67 -3 67 -65 7
c-36 4 -68 4 -71 0 -4 -4 -9 -218 -11 -477 l-3 -470 75 0 75 0 3 332 2 331 63
49 c87 68 129 86 222 92 l80 6 9 68 c5 37 6 70 4 72 -9 10 -124 14 -148 6z"/>
<path d="M10115 10321 c-47 -12 -105 -46 -170 -100 l-60 -49 -5 66 -5 67 -72
3 -73 3 -1 -338 c0 -186 -2 -397 -5 -469 l-5 -132 60 -7 c110 -13 101 -42 101
332 l0 326 47 43 c71 66 143 97 234 102 l76 4 16 66 c8 37 13 70 9 74 -12 11
-115 17 -147 9z"/>
<path d="M9867 8763 c-2 -5 -3 -195 -3 -423 l1 -415 50 0 50 0 -3 195 c-2 112
0 206 6 220 15 39 126 100 183 100 82 0 83 -4 89 -279 l5 -236 48 0 48 0 -1
230 c0 127 -5 246 -10 266 -36 134 -186 158 -317 50 -20 -17 -40 -28 -45 -25
-4 3 -8 77 -8 165 l0 159 -44 0 c-25 0 -47 -3 -49 -7z"/>
<path d="M12908 8355 c-2 -311 0 -419 9 -427 6 -5 29 -8 50 -6 l38 3 0 420 0
420 -47 3 -48 3 -2 -416z"/>
<path d="M10964 8717 c-3 -8 -4 -32 -2 -53 3 -34 7 -40 33 -44 17 -3 40 -4 53
-2 21 4 23 9 20 56 l-3 51 -48 3 c-34 2 -49 -1 -53 -11z"/>
<path d="M14347 8723 c-4 -3 -7 -25 -7 -49 0 -46 9 -54 65 -54 38 0 40 2 49
46 9 41 -13 64 -63 64 -21 0 -41 -3 -44 -7z"/>
<path d="M15044 8716 c-3 -8 -4 -31 -2 -52 3 -34 7 -39 34 -45 54 -10 74 4 74
55 0 37 -3 45 -22 50 -39 10 -78 7 -84 -8z"/>
<path d="M7050 8705 c-4 -5 -7 -183 -7 -395 l2 -385 234 -3 c129 -1 238 1 242
5 4 5 5 27 2 51 l-6 42 -183 0 -184 0 0 135 0 135 159 0 159 0 4 46 c2 25 1
47 -1 50 -2 2 -76 4 -163 4 l-159 0 3 113 3 112 180 3 c99 2 181 4 181 5 1 1
4 20 6 42 l3 40 -233 5 c-150 3 -237 1 -242 -5z"/>
<path d="M12352 8708 c-9 -9 -12 -108 -12 -400 l0 -388 244 0 243 0 -2 48 -2
47 -186 3 -187 2 0 135 0 135 160 0 160 0 0 50 0 50 -160 0 -161 0 3 112 3
112 75 2 c41 1 126 2 188 3 l112 1 0 45 0 45 -219 0 c-121 0 -225 2 -233 5 -7
3 -19 0 -26 -7z"/>
<path d="M13665 8678 c-3 -7 -6 -44 -7 -83 l-3 -70 -40 -5 c-37 -5 -40 -8 -40
-35 0 -26 5 -31 40 -41 l40 -11 5 -209 c4 -176 8 -214 23 -242 29 -53 70 -72
159 -72 42 0 80 5 83 10 4 7 31 8 71 4 l64 -7 0 190 c0 105 3 205 6 222 8 40
88 87 173 103 58 11 59 12 64 47 2 20 2 38 0 41 -3 3 -31 5 -63 4 -51 -1 -63
-5 -103 -38 -24 -20 -49 -36 -55 -36 -6 0 -12 15 -14 33 -3 31 -5 32 -49 35
l-46 3 -6 -158 c-3 -87 -4 -210 -3 -273 1 -63 1 -123 -2 -132 -6 -26 -30 -22
-34 5 -3 20 -10 23 -70 27 -37 3 -73 11 -80 18 -10 10 -13 64 -13 220 l0 207
73 3 c63 3 72 5 74 22 5 57 7 55 -72 60 l-75 5 -3 83 -3 82 -45 0 c-27 0 -46
-5 -49 -12z"/>
<path d="M15735 8678 c-3 -7 -6 -44 -7 -83 l-3 -70 -33 -3 c-25 -3 -38 -11
-50 -33 -10 -16 -20 -29 -24 -29 -4 0 -22 13 -40 29 -64 56 -172 67 -254 26
-66 -33 -97 -75 -102 -140 -9 -112 45 -154 279 -221 28 -8 59 -44 59 -70 0
-14 -14 -40 -34 -61 -31 -34 -38 -37 -87 -37 -40 0 -67 7 -104 27 -28 15 -64
29 -80 30 -26 2 -30 -2 -33 -24 -3 -30 39 -72 98 -97 54 -22 188 -19 237 7 92
47 125 149 78 241 -17 34 -76 65 -188 101 -105 35 -127 50 -127 91 0 42 17 68
55 84 50 20 75 18 141 -16 72 -36 102 -38 109 -7 5 20 11 22 55 19 l48 -4 4
-211 c3 -192 5 -215 23 -247 31 -53 75 -73 156 -73 80 0 101 12 97 57 l-3 31
-65 -3 c-107 -5 -104 -12 -108 237 l-4 211 65 0 c74 0 97 14 90 54 -5 24 -9
25 -77 28 l-71 3 -3 83 -3 82 -45 0 c-27 0 -46 -5 -49 -12z"/>
<path d="M7848 8531 c-14 -5 -48 -25 -74 -45 -59 -45 -72 -46 -70 -3 1 32 1
32 -48 32 l-48 0 -2 -295 -1 -295 49 0 49 0 -1 155 c-1 85 2 184 6 219 7 65 7
65 57 94 77 45 118 57 158 46 19 -5 39 -17 43 -27 5 -9 11 -123 14 -252 l5
-235 48 -3 48 -3 -3 248 c-3 228 -5 251 -24 287 -11 22 -32 49 -47 60 -29 22
-115 31 -159 17z"/>
<path d="M8315 8529 c-150 -44 -222 -312 -132 -491 29 -56 92 -104 152 -112
59 -9 98 -1 162 35 29 16 56 29 59 29 10 0 -5 -108 -20 -145 -8 -19 -28 -41
-45 -49 -39 -21 -130 -20 -206 0 -90 24 -90 24 -90 -20 0 -38 1 -39 55 -58 38
-13 83 -19 147 -19 101 0 150 15 196 59 51 49 57 94 57 444 l0 318 -44 0 c-35
0 -46 -4 -51 -19 -6 -19 -9 -18 -68 10 -64 30 -114 35 -172 18z m171 -98 c67
-31 74 -48 73 -186 -1 -66 -4 -131 -8 -145 -12 -42 -82 -83 -149 -88 -54 -4
-62 -2 -94 27 -43 38 -61 96 -61 195 0 173 104 258 239 197z"/>
<path d="M8890 8527 c-19 -6 -56 -32 -81 -57 -60 -60 -82 -125 -83 -245 -1
-155 44 -249 140 -295 62 -31 180 -31 246 -2 71 31 99 89 56 116 -14 8 -30 4
-77 -22 -135 -74 -242 -19 -258 132 l-6 56 191 0 c220 0 203 -10 190 111 -11
114 -63 183 -153 208 -49 13 -119 13 -165 -2z m156 -83 c42 -20 65 -60 67
-117 l2 -42 -130 -1 c-71 0 -135 3 -141 8 -15 11 -2 79 20 113 34 51 118 69
182 39z"/>
<path d="M9527 8530 c-16 -5 -48 -25 -73 -45 -50 -42 -68 -41 -69 0 0 26 -4
30 -37 36 -20 3 -42 3 -47 0 -6 -4 -11 -124 -13 -301 l-3 -295 50 0 50 0 -3
190 c-1 105 1 203 6 220 6 23 25 39 76 69 80 46 135 52 169 17 21 -21 22 -32
27 -259 l5 -237 48 -3 48 -3 -3 254 -3 254 -27 40 c-42 64 -118 88 -201 63z"/>
<path d="M10571 8526 c-47 -17 -108 -71 -131 -117 -43 -83 -46 -268 -6 -363
20 -49 62 -92 112 -117 67 -32 195 -31 256 2 51 29 78 70 62 96 -14 23 -51 28
-72 10 -82 -72 -212 -59 -254 25 -11 20 -22 62 -25 92 l-6 56 192 0 191 0 0
78 c0 129 -55 214 -155 241 -51 14 -121 13 -164 -3z m156 -83 c39 -18 72 -77
73 -125 0 -36 -14 -39 -160 -36 l-115 3 -3 38 c-8 100 106 167 205 120z"/>
<path d="M11677 8526 c-92 -34 -139 -95 -164 -211 -30 -139 9 -292 92 -358 45
-36 143 -61 203 -52 145 22 222 127 222 303 0 154 -44 254 -133 298 -63 33
-162 42 -220 20z m160 -87 c70 -34 88 -79 88 -214 0 -90 -4 -117 -20 -150 -28
-56 -75 -85 -139 -85 -109 0 -156 71 -156 236 0 94 15 148 53 185 49 50 109
59 174 28z"/>
<path d="M13252 8527 c-91 -34 -146 -114 -163 -233 -22 -160 22 -296 115 -353
47 -29 132 -42 203 -31 95 16 167 84 133 125 -14 17 -56 20 -65 5 -13 -21 -86
-50 -127 -50 -91 0 -144 56 -155 164 l-6 56 194 2 194 3 -3 70 c-6 130 -34
185 -116 227 -49 25 -156 33 -204 15z m153 -84 c41 -19 78 -86 73 -130 l-3
-28 -130 -1 c-71 0 -135 3 -142 9 -14 10 -7 58 14 100 31 61 117 84 188 50z"/>
<path d="M14687 8526 c-92 -33 -150 -114 -167 -235 -19 -133 22 -280 93 -333
47 -36 91 -48 174 -48 87 0 129 15 166 60 57 67 3 108 -73 55 -100 -69 -219
-31 -250 80 -17 61 -9 219 13 266 42 87 130 107 227 52 64 -36 100 -32 100 11
0 49 -104 105 -195 105 -27 0 -67 -6 -88 -13z"/>
<path d="M16143 8526 c-65 -21 -103 -53 -103 -86 0 -46 40 -53 96 -15 30 20
49 25 101 25 87 0 128 -18 143 -64 6 -20 10 -46 8 -58 -3 -21 -10 -24 -98 -31
-130 -11 -165 -22 -216 -69 -85 -78 -86 -195 -2 -277 61 -60 168 -58 258 4 42
29 55 27 62 -10 3 -16 11 -20 48 -20 l45 0 3 170 c3 190 -9 313 -36 359 -29
51 -90 78 -185 82 -52 3 -97 -1 -124 -10z m242 -377 c0 -79 -14 -99 -90 -135
-90 -43 -155 -26 -174 42 -21 74 20 137 97 149 20 4 44 8 52 10 8 2 38 2 65 2
l50 -2 0 -66z"/>
<path d="M11400 8523 c-14 -3 -38 -17 -55 -33 -16 -15 -40 -33 -52 -39 -22
-11 -23 -10 -23 29 l0 41 -52 -3 -51 -3 -1 -295 -1 -295 50 0 50 0 1 207 c0
160 3 210 14 223 26 31 114 75 151 75 45 0 67 17 75 56 5 27 3 32 -18 37 -25
7 -48 7 -88 0z"/>
<path d="M10970 8513 c0 -4 -1 -138 -2 -298 l-3 -290 50 0 50 0 0 295 0 295
-47 3 c-27 2 -48 -1 -48 -5z"/>
<path d="M14345 8408 c-3 -62 -5 -196 -3 -298 l3 -185 46 -3 c32 -2 48 1 51
10 2 7 2 142 0 301 l-4 287 -43 0 -43 0 -7 -112z"/>
<path d="M15050 8513 c0 -5 -1 -137 -3 -296 l-4 -287 22 -6 c12 -3 36 -4 51
-2 l29 3 0 298 0 297 -47 0 c-27 0 -48 -3 -48 -7z"/>
</g>
</svg>
